<svg width="432" height="433" viewBox="0 0 432 433" fill="none" xmlns="http://www.w3.org/2000/svg">
<circle cx="216" cy="216.086" r="216" fill="url(#paint0_linear_1871_3792)"/>
<path d="M229.515 87.5859L272.902 87.5859L272.902 204.991L229.515 204.991L229.515 87.5859ZM155.531 87.5859L199.403 87.5859L199.403 204.991L155.531 204.991L155.531 87.5859Z" fill="white"/>
<path d="M282.94 339.614C271.715 339.614 262.002 337.881 253.799 334.414C245.704 331.025 239.067 326.479 233.886 320.779C228.706 315.155 224.82 308.992 222.23 302.29L221.259 302.29C218.884 315.771 213.11 326.171 203.936 333.49C194.87 340.885 181.973 344.583 165.244 344.583C152.293 344.583 140.421 342.118 129.628 337.188C118.943 332.257 110.363 324.592 103.887 314.192C97.5193 303.792 94.3355 290.426 94.3355 274.094C94.3355 263.155 95.4687 253.833 97.7352 246.129C100.002 238.425 103.132 230.953 107.125 223.711L160.225 223.711C154.937 231.03 150.998 238.541 148.407 246.245C145.925 254.026 144.684 261.113 144.684 267.507C144.684 278.601 146.896 286.15 151.321 290.156C155.746 294.239 161.683 296.281 169.13 296.281C174.526 296.281 179.113 295.318 182.89 293.392C186.668 291.466 189.582 287.884 191.633 282.645C193.683 277.484 194.708 270.049 194.708 260.343L194.708 249.943L242.79 249.943L242.79 260.574C242.79 269.202 243.87 276.02 246.028 281.027C248.187 286.112 251.101 289.771 254.77 292.005C258.548 294.239 262.865 295.356 267.722 295.356C273.982 295.356 278.623 293.623 281.645 290.156C284.667 286.69 286.178 282.106 286.178 276.405C286.178 271.321 285.206 266.544 283.263 262.076C281.321 257.608 279.162 253.717 276.788 250.405C274.413 247.092 272.471 244.588 270.96 242.894L313.699 223.942C320.391 230.953 326.057 238.965 330.698 247.978C335.339 257.069 337.659 268.932 337.659 283.57C337.659 300.98 332.802 314.654 323.089 324.592C313.375 334.607 299.992 339.614 282.94 339.614Z" fill="white"/>
<defs>
<linearGradient id="paint0_linear_1871_3792" x1="216" y1="0.0859375" x2="216" y2="432.086" gradientUnits="userSpaceOnUse">
<stop stop-color="#0085FF"/>
<stop offset="1" stop-color="#003B71"/>
</linearGradient>
</defs>
</svg>
