<svg width="663" height="284" viewBox="0 0 663 284" fill="none" xmlns="http://www.w3.org/2000/svg" xmlns:xlink="http://www.w3.org/1999/xlink">
<path d="M265.47 193V95.5455H286.075V176.012H327.854V193H265.47ZM341.119 193V119.909H361.39V193H341.119ZM351.302 110.487C348.288 110.487 345.703 109.488 343.546 107.489C341.42 105.459 340.357 103.032 340.357 100.209C340.357 97.4171 341.42 95.022 343.546 93.0234C345.703 90.9931 348.288 89.978 351.302 89.978C354.316 89.978 356.885 90.9931 359.011 93.0234C361.168 95.022 362.247 97.4171 362.247 100.209C362.247 103.032 361.168 105.459 359.011 107.489C356.885 109.488 354.316 110.487 351.302 110.487ZM412.556 193H378.009V95.5455H412.842C422.644 95.5455 431.083 97.4964 438.157 101.398C445.231 105.269 450.672 110.836 454.479 118.101C458.317 125.366 460.237 134.058 460.237 144.178C460.237 154.329 458.317 163.053 454.479 170.349C450.672 177.646 445.2 183.245 438.062 187.147C430.956 191.049 422.454 193 412.556 193ZM398.614 175.346H411.7C417.79 175.346 422.914 174.267 427.07 172.11C431.257 169.921 434.398 166.543 436.491 161.974C438.617 157.375 439.68 151.442 439.68 144.178C439.68 136.976 438.617 131.092 436.491 126.523C434.398 121.955 431.273 118.593 427.117 116.435C422.961 114.278 417.838 113.2 411.747 113.2H398.614V175.346ZM557.013 95.5455V193H539.216L496.818 131.663H496.104V193H475.499V95.5455H493.582L535.647 156.835H536.504V95.5455H557.013ZM568.326 95.5455H591.405L613.627 137.516H614.579L636.801 95.5455H659.88L624.334 158.548V193H603.873V158.548L568.326 95.5455Z" fill="white"/>
<path d="M148 211H643" stroke="white" stroke-width="8" stroke-linecap="round"/>
<g filter="url(#filter0_di_1873_3733)">
<rect x="40" y="40" width="204" height="204" fill="url(#pattern0)" shape-rendering="crispEdges"/>
</g>
<defs>
<filter id="filter0_di_1873_3733" x="0.700001" y="0.700001" width="282.6" height="282.6" filterUnits="userSpaceOnUse" color-interpolation-filters="sRGB">
<feFlood flood-opacity="0" result="BackgroundImageFix"/>
<feColorMatrix in="SourceAlpha" type="matrix" values="0 0 0 0 0 0 0 0 0 0 0 0 0 0 0 0 0 0 127 0" result="hardAlpha"/>
<feOffset/>
<feGaussianBlur stdDeviation="19.65"/>
<feComposite in2="hardAlpha" operator="out"/>
<feColorMatrix type="matrix" values="0 0 0 0 0 0 0 0 0 0 0 0 0 0 0 0 0 0 0.75 0"/>
<feBlend mode="normal" in2="BackgroundImageFix" result="effect1_dropShadow_1873_3733"/>
<feBlend mode="normal" in="SourceGraphic" in2="effect1_dropShadow_1873_3733" result="shape"/>
<feColorMatrix in="SourceAlpha" type="matrix" values="0 0 0 0 0 0 0 0 0 0 0 0 0 0 0 0 0 0 127 0" result="hardAlpha"/>
<feOffset/>
<feGaussianBlur stdDeviation="26.85"/>
<feComposite in2="hardAlpha" operator="arithmetic" k2="-1" k3="1"/>
<feColorMatrix type="matrix" values="0 0 0 0 0 0 0 0 0 0 0 0 0 0 0 0 0 0 1 0"/>
<feBlend mode="normal" in2="shape" result="effect2_innerShadow_1873_3733"/>
</filter>
<pattern id="pattern0" patternContentUnits="objectBoundingBox" width="1" height="1">
<use xlink:href="#image0_1873_3733" transform="scale(0.003003)"/>
</pattern>
<svg width="377" height="377" viewBox="0 0 377 377" fill="none" xmlns="http://www.w3.org/2000/svg">
<circle cx="216" cy="216.086" r="216" fill="url(#paint0_linear_1871_3792)"/>
<path d="M229.515 87.5859L272.902 87.5859L272.902 204.991L229.515 204.991L229.515 87.5859ZM155.531 87.5859L199.403 87.5859L199.403 204.991L155.531 204.991L155.531 87.5859Z" fill="white"/>
<path d="M282.94 339.614C271.715 339.614 262.002 337.881 253.799 334.414C245.704 331.025 239.067 326.479 233.886 320.779C228.706 315.155 224.82 308.992 222.23 302.29L221.259 302.29C218.884 315.771 213.11 326.171 203.936 333.49C194.87 340.885 181.973 344.583 165.244 344.583C152.293 344.583 140.421 342.118 129.628 337.188C118.943 332.257 110.363 324.592 103.887 314.192C97.5193 303.792 94.3355 290.426 94.3355 274.094C94.3355 263.155 95.4687 253.833 97.7352 246.129C100.002 238.425 103.132 230.953 107.125 223.711L160.225 223.711C154.937 231.03 150.998 238.541 148.407 246.245C145.925 254.026 144.684 261.113 144.684 267.507C144.684 278.601 146.896 286.15 151.321 290.156C155.746 294.239 161.683 296.281 169.13 296.281C174.526 296.281 179.113 295.318 182.89 293.392C186.668 291.466 189.582 287.884 191.633 282.645C193.683 277.484 194.708 270.049 194.708 260.343L194.708 249.943L242.79 249.943L242.79 260.574C242.79 269.202 243.87 276.02 246.028 281.027C248.187 286.112 251.101 289.771 254.77 292.005C258.548 294.239 262.865 295.356 267.722 295.356C273.982 295.356 278.623 293.623 281.645 290.156C284.667 286.69 286.178 282.106 286.178 276.405C286.178 271.321 285.206 266.544 283.263 262.076C281.321 257.608 279.162 253.717 276.788 250.405C274.413 247.092 272.471 244.588 270.96 242.894L313.699 223.942C320.391 230.953 326.057 238.965 330.698 247.978C335.339 257.069 337.659 268.932 337.659 283.57C337.659 300.98 332.802 314.654 323.089 324.592C313.375 334.607 299.992 339.614 282.94 339.614Z" fill="white"/>
<defs>
<linearGradient id="paint0_linear_1871_3792" x1="216" y1="0.0859375" x2="216" y2="432.086" gradientUnits="userSpaceOnUse">
<stop stop-color="#0085FF"/>
<stop offset="1" stop-color="#003B71"/>
</linearGradient>
</defs>
</svg>
</defs>
</svg>
